<mxfile host="app.diagrams.net" modified="2023-04-01T09:36:32.227Z" agent="Mozilla/5.0 (Windows NT 10.0; Win64; x64; rv:109.0) Gecko/20100101 Firefox/111.0" etag="LqfFZJYjFflmQNWcVk2R" version="21.1.2" pages="5">
  <diagram name="index.jsp" id="LQdYLOly_wxRT5V-thMs">
    <mxGraphModel dx="990" dy="601" grid="1" gridSize="10" guides="1" tooltips="1" connect="1" arrows="1" fold="1" page="1" pageScale="1" pageWidth="850" pageHeight="1100" math="0" shadow="0">
      <root>
        <mxCell id="0" />
        <mxCell id="1" parent="0" />
        <mxCell id="RLXqUKXdcLDBlUjPVs38-1" value="" style="rounded=0;whiteSpace=wrap;html=1;" parent="1" vertex="1">
          <mxGeometry x="80" y="70" width="650" height="430" as="geometry" />
        </mxCell>
        <mxCell id="RLXqUKXdcLDBlUjPVs38-2" value="" style="rounded=0;whiteSpace=wrap;html=1;" parent="1" vertex="1">
          <mxGeometry x="130" y="150" width="120" height="60" as="geometry" />
        </mxCell>
        <mxCell id="RLXqUKXdcLDBlUjPVs38-3" value="" style="rounded=0;whiteSpace=wrap;html=1;" parent="1" vertex="1">
          <mxGeometry x="270" y="150" width="120" height="60" as="geometry" />
        </mxCell>
        <mxCell id="RLXqUKXdcLDBlUjPVs38-4" value="" style="rounded=0;whiteSpace=wrap;html=1;" parent="1" vertex="1">
          <mxGeometry x="410" y="150" width="120" height="60" as="geometry" />
        </mxCell>
        <mxCell id="RLXqUKXdcLDBlUjPVs38-5" value="TO" style="text;html=1;strokeColor=none;fillColor=none;align=center;verticalAlign=middle;whiteSpace=wrap;rounded=0;fontStyle=1;fontSize=24;" parent="1" vertex="1">
          <mxGeometry x="300" y="110" width="60" height="30" as="geometry" />
        </mxCell>
        <mxCell id="RLXqUKXdcLDBlUjPVs38-6" value="FROM" style="text;html=1;strokeColor=none;fillColor=none;align=center;verticalAlign=middle;whiteSpace=wrap;rounded=0;fontStyle=1;fontSize=24;" parent="1" vertex="1">
          <mxGeometry x="150" y="110" width="60" height="30" as="geometry" />
        </mxCell>
        <mxCell id="RLXqUKXdcLDBlUjPVs38-7" value="DATE" style="text;html=1;strokeColor=none;fillColor=none;align=center;verticalAlign=middle;whiteSpace=wrap;rounded=0;fontStyle=1;fontSize=24;" parent="1" vertex="1">
          <mxGeometry x="450" y="110" width="60" height="30" as="geometry" />
        </mxCell>
        <mxCell id="RLXqUKXdcLDBlUjPVs38-8" value="SEARCH" style="rounded=1;whiteSpace=wrap;html=1;fillColor=#dae8fc;strokeColor=#6c8ebf;fontStyle=1;fontSize=24;" parent="1" vertex="1">
          <mxGeometry x="570" y="150" width="120" height="60" as="geometry" />
        </mxCell>
      </root>
    </mxGraphModel>
  </diagram>
  <diagram name="available-flights.jsp" id="iL8gAcU2dVudazyFhegC">
    <mxGraphModel dx="825" dy="501" grid="1" gridSize="10" guides="1" tooltips="1" connect="1" arrows="1" fold="1" page="1" pageScale="1" pageWidth="850" pageHeight="1100" math="0" shadow="0">
      <root>
        <mxCell id="sgPjUnsPto7wz7VtH97T-0" />
        <mxCell id="sgPjUnsPto7wz7VtH97T-1" parent="sgPjUnsPto7wz7VtH97T-0" />
        <mxCell id="sgPjUnsPto7wz7VtH97T-2" value="" style="rounded=0;whiteSpace=wrap;html=1;" parent="sgPjUnsPto7wz7VtH97T-1" vertex="1">
          <mxGeometry x="80" y="70" width="740" height="430" as="geometry" />
        </mxCell>
        <mxCell id="sgPjUnsPto7wz7VtH97T-6" value="ARRIVAL" style="text;html=1;strokeColor=none;fillColor=none;align=center;verticalAlign=middle;whiteSpace=wrap;rounded=0;fontStyle=1;fontSize=24;" parent="sgPjUnsPto7wz7VtH97T-1" vertex="1">
          <mxGeometry x="300" y="110" width="60" height="30" as="geometry" />
        </mxCell>
        <mxCell id="sgPjUnsPto7wz7VtH97T-7" value="DEPARTURE" style="text;html=1;strokeColor=none;fillColor=none;align=center;verticalAlign=middle;whiteSpace=wrap;rounded=0;fontStyle=1;fontSize=24;" parent="sgPjUnsPto7wz7VtH97T-1" vertex="1">
          <mxGeometry x="150" y="110" width="60" height="30" as="geometry" />
        </mxCell>
        <mxCell id="sgPjUnsPto7wz7VtH97T-8" value="AIRLINE" style="text;html=1;strokeColor=none;fillColor=none;align=center;verticalAlign=middle;whiteSpace=wrap;rounded=0;fontStyle=1;fontSize=24;" parent="sgPjUnsPto7wz7VtH97T-1" vertex="1">
          <mxGeometry x="420" y="110" width="60" height="30" as="geometry" />
        </mxCell>
        <mxCell id="SFBZDRhwEDV2XITyUT6O-7" value="PRICE" style="text;html=1;strokeColor=none;fillColor=none;align=center;verticalAlign=middle;whiteSpace=wrap;rounded=0;fontStyle=1;fontSize=24;" parent="sgPjUnsPto7wz7VtH97T-1" vertex="1">
          <mxGeometry x="540" y="110" width="60" height="30" as="geometry" />
        </mxCell>
        <mxCell id="SFBZDRhwEDV2XITyUT6O-8" value="BOOK" style="rounded=1;whiteSpace=wrap;html=1;" parent="sgPjUnsPto7wz7VtH97T-1" vertex="1">
          <mxGeometry x="630" y="165" width="120" height="40" as="geometry" />
        </mxCell>
        <mxCell id="SFBZDRhwEDV2XITyUT6O-9" value="BOOK" style="rounded=1;whiteSpace=wrap;html=1;" parent="sgPjUnsPto7wz7VtH97T-1" vertex="1">
          <mxGeometry x="630" y="213" width="120" height="40" as="geometry" />
        </mxCell>
        <mxCell id="SFBZDRhwEDV2XITyUT6O-35" value="" style="childLayout=tableLayout;recursiveResize=0;shadow=0;fillColor=none;strokeColor=#C0C0C0;movable=1;resizable=1;rotatable=1;deletable=1;editable=1;locked=0;connectable=1;" parent="sgPjUnsPto7wz7VtH97T-1" vertex="1">
          <mxGeometry x="110" y="160" width="410" height="93" as="geometry" />
        </mxCell>
        <mxCell id="SFBZDRhwEDV2XITyUT6O-40" style="shape=tableRow;horizontal=0;startSize=0;swimlaneHead=0;swimlaneBody=0;top=0;left=0;bottom=0;right=0;dropTarget=0;collapsible=0;recursiveResize=0;expand=0;fontStyle=0;fillColor=none;" parent="SFBZDRhwEDV2XITyUT6O-35" vertex="1">
          <mxGeometry width="410" height="46" as="geometry" />
        </mxCell>
        <mxCell id="SFBZDRhwEDV2XITyUT6O-41" value="Value 4" style="connectable=0;recursiveResize=0;strokeColor=none;fillColor=none;align=center;whiteSpace=wrap;html=1;" parent="SFBZDRhwEDV2XITyUT6O-40" vertex="1">
          <mxGeometry width="137" height="46" as="geometry">
            <mxRectangle width="137" height="46" as="alternateBounds" />
          </mxGeometry>
        </mxCell>
        <mxCell id="SFBZDRhwEDV2XITyUT6O-42" value="Value 5" style="connectable=0;recursiveResize=0;strokeColor=none;fillColor=none;align=center;whiteSpace=wrap;html=1;" parent="SFBZDRhwEDV2XITyUT6O-40" vertex="1">
          <mxGeometry x="137" width="136" height="46" as="geometry">
            <mxRectangle width="136" height="46" as="alternateBounds" />
          </mxGeometry>
        </mxCell>
        <mxCell id="SFBZDRhwEDV2XITyUT6O-43" value="" style="connectable=0;recursiveResize=0;strokeColor=none;fillColor=none;align=center;whiteSpace=wrap;html=1;" parent="SFBZDRhwEDV2XITyUT6O-40" vertex="1">
          <mxGeometry x="273" width="137" height="46" as="geometry">
            <mxRectangle width="137" height="46" as="alternateBounds" />
          </mxGeometry>
        </mxCell>
        <mxCell id="SFBZDRhwEDV2XITyUT6O-44" style="shape=tableRow;horizontal=0;startSize=0;swimlaneHead=0;swimlaneBody=0;top=0;left=0;bottom=0;right=0;dropTarget=0;collapsible=0;recursiveResize=0;expand=0;fontStyle=0;fillColor=none;" parent="SFBZDRhwEDV2XITyUT6O-35" vertex="1">
          <mxGeometry y="46" width="410" height="47" as="geometry" />
        </mxCell>
        <mxCell id="SFBZDRhwEDV2XITyUT6O-45" value="Value 7" style="connectable=0;recursiveResize=0;strokeColor=none;fillColor=none;align=center;whiteSpace=wrap;html=1;" parent="SFBZDRhwEDV2XITyUT6O-44" vertex="1">
          <mxGeometry width="137" height="47" as="geometry">
            <mxRectangle width="137" height="47" as="alternateBounds" />
          </mxGeometry>
        </mxCell>
        <mxCell id="SFBZDRhwEDV2XITyUT6O-46" value="Value 8" style="connectable=0;recursiveResize=0;strokeColor=none;fillColor=none;align=center;whiteSpace=wrap;html=1;" parent="SFBZDRhwEDV2XITyUT6O-44" vertex="1">
          <mxGeometry x="137" width="136" height="47" as="geometry">
            <mxRectangle width="136" height="47" as="alternateBounds" />
          </mxGeometry>
        </mxCell>
        <mxCell id="SFBZDRhwEDV2XITyUT6O-47" value="" style="connectable=0;recursiveResize=0;strokeColor=none;fillColor=none;align=center;whiteSpace=wrap;html=1;" parent="SFBZDRhwEDV2XITyUT6O-44" vertex="1">
          <mxGeometry x="273" width="137" height="47" as="geometry">
            <mxRectangle width="137" height="47" as="alternateBounds" />
          </mxGeometry>
        </mxCell>
        <mxCell id="SFBZDRhwEDV2XITyUT6O-72" value="" style="childLayout=tableLayout;recursiveResize=0;shadow=0;fillColor=none;strokeColor=#C0C0C0;movable=1;resizable=1;rotatable=1;deletable=1;editable=1;locked=0;connectable=1;" parent="sgPjUnsPto7wz7VtH97T-1" vertex="1">
          <mxGeometry x="380" y="160" width="380" height="94" as="geometry" />
        </mxCell>
        <mxCell id="SFBZDRhwEDV2XITyUT6O-73" style="shape=tableRow;horizontal=0;startSize=0;swimlaneHead=0;swimlaneBody=0;top=0;left=0;bottom=0;right=0;dropTarget=0;collapsible=0;recursiveResize=0;expand=0;fontStyle=0;fillColor=none;" parent="SFBZDRhwEDV2XITyUT6O-72" vertex="1">
          <mxGeometry width="380" height="40" as="geometry" />
        </mxCell>
        <mxCell id="SFBZDRhwEDV2XITyUT6O-74" value="Value 4" style="connectable=0;recursiveResize=0;strokeColor=none;fillColor=none;align=center;whiteSpace=wrap;html=1;" parent="SFBZDRhwEDV2XITyUT6O-73" vertex="1">
          <mxGeometry width="127" height="40" as="geometry">
            <mxRectangle width="127" height="40" as="alternateBounds" />
          </mxGeometry>
        </mxCell>
        <mxCell id="SFBZDRhwEDV2XITyUT6O-75" value="Value 5" style="connectable=0;recursiveResize=0;strokeColor=none;fillColor=none;align=center;whiteSpace=wrap;html=1;" parent="SFBZDRhwEDV2XITyUT6O-73" vertex="1">
          <mxGeometry x="127" width="126" height="40" as="geometry">
            <mxRectangle width="126" height="40" as="alternateBounds" />
          </mxGeometry>
        </mxCell>
        <mxCell id="SFBZDRhwEDV2XITyUT6O-76" value="" style="connectable=0;recursiveResize=0;strokeColor=none;fillColor=none;align=center;whiteSpace=wrap;html=1;" parent="SFBZDRhwEDV2XITyUT6O-73" vertex="1">
          <mxGeometry x="253" width="127" height="40" as="geometry">
            <mxRectangle width="127" height="40" as="alternateBounds" />
          </mxGeometry>
        </mxCell>
        <mxCell id="SFBZDRhwEDV2XITyUT6O-77" style="shape=tableRow;horizontal=0;startSize=0;swimlaneHead=0;swimlaneBody=0;top=0;left=0;bottom=0;right=0;dropTarget=0;collapsible=0;recursiveResize=0;expand=0;fontStyle=0;fillColor=none;" parent="SFBZDRhwEDV2XITyUT6O-72" vertex="1">
          <mxGeometry y="40" width="380" height="54" as="geometry" />
        </mxCell>
        <mxCell id="SFBZDRhwEDV2XITyUT6O-78" value="Value 7" style="connectable=0;recursiveResize=0;strokeColor=none;fillColor=none;align=center;whiteSpace=wrap;html=1;" parent="SFBZDRhwEDV2XITyUT6O-77" vertex="1">
          <mxGeometry width="127" height="54" as="geometry">
            <mxRectangle width="127" height="54" as="alternateBounds" />
          </mxGeometry>
        </mxCell>
        <mxCell id="SFBZDRhwEDV2XITyUT6O-79" value="Value 8" style="connectable=0;recursiveResize=0;strokeColor=none;fillColor=none;align=center;whiteSpace=wrap;html=1;" parent="SFBZDRhwEDV2XITyUT6O-77" vertex="1">
          <mxGeometry x="127" width="126" height="54" as="geometry">
            <mxRectangle width="126" height="54" as="alternateBounds" />
          </mxGeometry>
        </mxCell>
        <mxCell id="SFBZDRhwEDV2XITyUT6O-80" value="" style="connectable=0;recursiveResize=0;strokeColor=none;fillColor=none;align=center;whiteSpace=wrap;html=1;" parent="SFBZDRhwEDV2XITyUT6O-77" vertex="1">
          <mxGeometry x="253" width="127" height="54" as="geometry">
            <mxRectangle width="127" height="54" as="alternateBounds" />
          </mxGeometry>
        </mxCell>
      </root>
    </mxGraphModel>
  </diagram>
  <diagram name="registration.jsp" id="00wjx7Kue7E5soocuMo5">
    <mxGraphModel dx="990" dy="601" grid="1" gridSize="10" guides="1" tooltips="1" connect="1" arrows="1" fold="1" page="1" pageScale="1" pageWidth="850" pageHeight="1100" math="0" shadow="0">
      <root>
        <mxCell id="5r6CD-eMkaHkt80nQbGX-0" />
        <mxCell id="5r6CD-eMkaHkt80nQbGX-1" parent="5r6CD-eMkaHkt80nQbGX-0" />
        <mxCell id="5r6CD-eMkaHkt80nQbGX-2" value="" style="rounded=0;whiteSpace=wrap;html=1;" parent="5r6CD-eMkaHkt80nQbGX-1" vertex="1">
          <mxGeometry x="80" y="70" width="740" height="430" as="geometry" />
        </mxCell>
        <mxCell id="5r6CD-eMkaHkt80nQbGX-3" value="PASSWORD" style="text;html=1;strokeColor=none;fillColor=none;align=center;verticalAlign=middle;whiteSpace=wrap;rounded=0;fontStyle=1;fontSize=24;" parent="5r6CD-eMkaHkt80nQbGX-1" vertex="1">
          <mxGeometry x="220" y="250" width="60" height="30" as="geometry" />
        </mxCell>
        <mxCell id="5r6CD-eMkaHkt80nQbGX-7" value="REGISTER" style="rounded=1;whiteSpace=wrap;html=1;fontStyle=1;fontSize=24;fillColor=#dae8fc;strokeColor=#6c8ebf;" parent="5r6CD-eMkaHkt80nQbGX-1" vertex="1">
          <mxGeometry x="380" y="350" width="120" height="40" as="geometry" />
        </mxCell>
        <mxCell id="5jZ2WwFSqaXmc2T2beJb-0" value="NAME" style="text;html=1;strokeColor=none;fillColor=none;align=center;verticalAlign=middle;whiteSpace=wrap;rounded=0;fontStyle=1;fontSize=24;" parent="5r6CD-eMkaHkt80nQbGX-1" vertex="1">
          <mxGeometry x="210" y="190" width="60" height="30" as="geometry" />
        </mxCell>
        <mxCell id="5jZ2WwFSqaXmc2T2beJb-2" value="" style="rounded=0;whiteSpace=wrap;html=1;" parent="5r6CD-eMkaHkt80nQbGX-1" vertex="1">
          <mxGeometry x="390" y="190" width="120" height="40" as="geometry" />
        </mxCell>
        <mxCell id="5jZ2WwFSqaXmc2T2beJb-3" value="" style="rounded=0;whiteSpace=wrap;html=1;" parent="5r6CD-eMkaHkt80nQbGX-1" vertex="1">
          <mxGeometry x="390" y="250" width="120" height="40" as="geometry" />
        </mxCell>
      </root>
    </mxGraphModel>
  </diagram>
  <diagram name="payment.jsp" id="a22ZBo0_Qt4sb4xSzoWd">
    <mxGraphModel dx="990" dy="601" grid="1" gridSize="10" guides="1" tooltips="1" connect="1" arrows="1" fold="1" page="1" pageScale="1" pageWidth="850" pageHeight="1100" math="0" shadow="0">
      <root>
        <mxCell id="rr5hNsdtqaxWnwavUrbN-0" />
        <mxCell id="rr5hNsdtqaxWnwavUrbN-1" parent="rr5hNsdtqaxWnwavUrbN-0" />
        <mxCell id="rr5hNsdtqaxWnwavUrbN-2" value="" style="rounded=0;whiteSpace=wrap;html=1;" parent="rr5hNsdtqaxWnwavUrbN-1" vertex="1">
          <mxGeometry x="80" y="70" width="740" height="430" as="geometry" />
        </mxCell>
        <mxCell id="rr5hNsdtqaxWnwavUrbN-3" value="FROM" style="text;html=1;strokeColor=none;fillColor=none;align=center;verticalAlign=middle;whiteSpace=wrap;rounded=0;fontStyle=1;fontSize=24;" parent="rr5hNsdtqaxWnwavUrbN-1" vertex="1">
          <mxGeometry x="210" y="230" width="60" height="30" as="geometry" />
        </mxCell>
        <mxCell id="rr5hNsdtqaxWnwavUrbN-4" value="BOOK" style="rounded=1;whiteSpace=wrap;html=1;fontStyle=1;labelBackgroundColor=none;fillColor=#dae8fc;strokeColor=#6c8ebf;" parent="rr5hNsdtqaxWnwavUrbN-1" vertex="1">
          <mxGeometry x="380" y="410" width="120" height="40" as="geometry" />
        </mxCell>
        <mxCell id="rr5hNsdtqaxWnwavUrbN-5" value="AIRLINE" style="text;html=1;strokeColor=none;fillColor=none;align=center;verticalAlign=middle;whiteSpace=wrap;rounded=0;fontStyle=1;fontSize=24;" parent="rr5hNsdtqaxWnwavUrbN-1" vertex="1">
          <mxGeometry x="210" y="190" width="60" height="30" as="geometry" />
        </mxCell>
        <mxCell id="CJiEM_IzR2tykGGQn-Zr-0" value="TO" style="text;html=1;strokeColor=none;fillColor=none;align=center;verticalAlign=middle;whiteSpace=wrap;rounded=0;fontStyle=1;fontSize=24;" parent="rr5hNsdtqaxWnwavUrbN-1" vertex="1">
          <mxGeometry x="220" y="270" width="60" height="30" as="geometry" />
        </mxCell>
        <mxCell id="CJiEM_IzR2tykGGQn-Zr-5" value="AMOUNT" style="text;html=1;strokeColor=none;fillColor=none;align=center;verticalAlign=middle;whiteSpace=wrap;rounded=0;fontStyle=1;fontSize=24;" parent="rr5hNsdtqaxWnwavUrbN-1" vertex="1">
          <mxGeometry x="210" y="310" width="60" height="30" as="geometry" />
        </mxCell>
        <mxCell id="BW6usyiTNaQdVqDvLoPr-0" value="MAKE PAYMENT" style="text;html=1;strokeColor=none;fillColor=none;align=center;verticalAlign=middle;whiteSpace=wrap;rounded=0;fontStyle=1;fontSize=24;" vertex="1" parent="rr5hNsdtqaxWnwavUrbN-1">
          <mxGeometry x="327.5" y="90" width="245" height="30" as="geometry" />
        </mxCell>
      </root>
    </mxGraphModel>
  </diagram>
  <diagram name="confirm.jsp" id="HOp8JR7yVnedNBfkHkiF">
    <mxGraphModel dx="990" dy="601" grid="1" gridSize="10" guides="1" tooltips="1" connect="1" arrows="1" fold="1" page="1" pageScale="1" pageWidth="850" pageHeight="1100" math="0" shadow="0">
      <root>
        <mxCell id="c8S1V9rUSXH6mUvqNyAG-0" />
        <mxCell id="c8S1V9rUSXH6mUvqNyAG-1" parent="c8S1V9rUSXH6mUvqNyAG-0" />
        <mxCell id="c8S1V9rUSXH6mUvqNyAG-2" value="" style="rounded=0;whiteSpace=wrap;html=1;" parent="c8S1V9rUSXH6mUvqNyAG-1" vertex="1">
          <mxGeometry x="80" y="70" width="740" height="430" as="geometry" />
        </mxCell>
        <mxCell id="c8S1V9rUSXH6mUvqNyAG-5" value="&lt;b&gt;&lt;font style=&quot;font-size: 24px;&quot;&gt;BOOKING CONFIRMED&amp;nbsp; !!&lt;/font&gt;&lt;/b&gt;" style="text;html=1;strokeColor=none;fillColor=none;align=center;verticalAlign=middle;whiteSpace=wrap;rounded=0;" parent="c8S1V9rUSXH6mUvqNyAG-1" vertex="1">
          <mxGeometry x="210" y="190" width="490" height="30" as="geometry" />
        </mxCell>
        <UserObject label="&lt;font style=&quot;font-size: 24px;&quot;&gt;confirm.jsp&lt;/font&gt;" link="confirm.jsp" id="aolQ36Wq4kJEVrWNbPBt-0">
          <mxCell style="text;whiteSpace=wrap;html=1;" vertex="1" parent="c8S1V9rUSXH6mUvqNyAG-1">
            <mxGeometry x="450" y="30" width="90" height="40" as="geometry" />
          </mxCell>
        </UserObject>
      </root>
    </mxGraphModel>
  </diagram>
</mxfile>
